/* XPM */
static char *_f2e034882c64cdea5088dd5186ac997[] = {
/* columns rows colors chars-per-pixel */
"16 16 149 2 ",
"   c #976711",
".  c #9A6910",
"X  c #9A6811",
"o  c #9B6A11",
"O  c #996912",
"+  c #9B6A12",
"@  c #9D6C12",
"#  c #9C6D14",
"$  c #9D6E14",
"%  c #A17014",
"&  c #A17116",
"*  c #A37217",
"=  c #AA7A1A",
"-  c #AD7E19",
";  c #AE811D",
":  c #B0831B",
">  c #B2801D",
",  c #BF8C24",
"<  c #BC9123",
"1  c #C29726",
"2  c #C59B26",
"3  c #C89C25",
"4  c #C99C25",
"5  c #C99F2B",
"6  c #CAA127",
"7  c #CFA629",
"8  c #CBA12C",
"9  c #CFA52E",
"0  c #D0A92B",
"q  c #D1AA2B",
"w  c #D7B02C",
"e  c #D8B22D",
"r  c #D1A333",
"t  c #D6AF37",
"y  c #D6AF38",
"u  c #DDBC34",
"i  c #DBB63E",
"p  c #E0BC33",
"a  c #E4BF30",
"s  c #E1BC35",
"d  c #E8BC31",
"f  c #E6BF3E",
"g  c #DFC039",
"h  c #E7C232",
"j  c #E6C233",
"k  c #ECC231",
"l  c #E9C636",
"z  c #EDC832",
"x  c #E9CB35",
"c  c #EBCC37",
"v  c #EFCE37",
"b  c #E6C038",
"n  c #EBC43A",
"m  c #EAC63B",
"M  c #EDCE38",
"N  c #EDCC3A",
"B  c #ECCB3E",
"V  c #ECCF3C",
"C  c #EDCE3E",
"Z  c #F2C931",
"A  c #F1CA30",
"S  c #F3CB33",
"D  c #F1CD33",
"F  c #F4C934",
"G  c #F1CC36",
"H  c #F2CD37",
"J  c #F2CF36",
"K  c #F5CF35",
"L  c #F8CF32",
"P  c #FACF32",
"I  c #F1CD3A",
"U  c #F3CD3A",
"Y  c #ECD137",
"T  c #EFD337",
"R  c #E8D039",
"E  c #EBD13B",
"W  c #EAD33F",
"Q  c #ECD53D",
"!  c #EFD53C",
"~  c #EDD53E",
"^  c #EFDB39",
"/  c #EED83A",
"(  c #EBD83E",
")  c #EDD93E",
"_  c #F7D034",
"`  c #F5D235",
"'  c #F7D236",
"]  c #F1D534",
"[  c #F3D537",
"{  c #FAD536",
"}  c #F9D637",
"|  c #F5D937",
" . c #F4D639",
".. c #F0D23F",
"X. c #F1D73D",
"o. c #F9D63C",
"O. c #F3D93B",
"+. c #F5DD39",
"@. c #F2DD3F",
"#. c #F1DF3F",
"$. c #F9DA3D",
"%. c #F8DF3F",
"&. c #FAE03B",
"*. c #FAE73C",
"=. c #FBE73E",
"-. c #DABF4B",
";. c #E2BD40",
":. c #E0CA4B",
">. c #E8D041",
",. c #ECD242",
"<. c #EAD047",
"1. c #E9D348",
"2. c #E8D04D",
"3. c #EBD54C",
"4. c #ECD74D",
"5. c #EDDD4A",
"6. c #ECDB4D",
"7. c #F1DA40",
"8. c #F1DE41",
"9. c #F1DF43",
"0. c #F6DE44",
"q. c #F0D949",
"w. c #EAC852",
"e. c #EAD051",
"r. c #F0DF59",
"t. c #F3E241",
"y. c #F8E442",
"u. c #F1E24A",
"i. c #F0E15A",
"p. c #E4CF65",
"a. c #EAD861",
"s. c #EDDB62",
"d. c #E9D76E",
"f. c #EEDC6E",
"g. c #E3D071",
"h. c #EAD673",
"j. c #E9D871",
"k. c #EFE067",
"l. c #ECDD99",
"z. c #F0E185",
"x. c #F3E590",
"c. c #F4E4A4",
"v. c #F4E6A5",
"b. c #F4E6AA",
"n. c #F6E7AB",
"m. c #F7E8AB",
"M. c #F7EAB1",
"N. c #F9ECB6",
"B. c None",
/* pixels */
"B.B.B.B.B.B.B.B.B.B.B.B.B.B.B.B.",
"B.B.B.B.B.B.N.b.v.m.B.B.B.B.B.B.",
"B.B.B.B.M.x.d.s.r.f.h.p.B.B.B.B.",
"B.B.B.v.d.5.( ) @.W y.:.t B.B.B.",
"B.B.b.k.t.9.^ ~ @.+.%.X.u , B.B.",
"B.B.z.9.*.=.1.,.E ] [ [ M 1 B.B.",
"B.l.s./ R 0.3.2.<.x ..N J q * B.",
"B.g.4.~ Y %.q.r.u.O.` j D e & B.",
"B.-.>.X.E m B w.6.@.m a ` w # B.",
"B.r b  .$.B z ;.2.Y h Z _ 6   B.",
"B.B.8 H } o.I n p U S P k ; B.B.",
"B.B.- q J ' _ F s Z P F 3 O B.B.",
"B.B.B.= 7 d m >.i t d 3 $ B.B.B.",
"B.B.B.B.& : 2 9 8 < - O B.B.B.B.",
"B.B.B.B.B.B.O @ @ O B.B.B.B.B.B.",
"B.B.B.B.B.B.B.B.B.B.B.B.B.B.B.B."
};
