/* XPM */
static char *_57fc0f5f90a4bf2d565829295f7ba58[] = {
/* columns rows colors chars-per-pixel */
"64 64 256 2 ",
"   c #6B4D0E",
".  c #704F0E",
"X  c #71510D",
"o  c #7A590D",
"O  c #6E5012",
"+  c #755412",
"@  c #7A5511",
"#  c #7D5C13",
"$  c #795B19",
"%  c #6D4F10",
"&  c #8F5D0B",
"*  c #815E0E",
"=  c #925E0A",
"-  c #845C13",
";  c #8A5F14",
":  c #8E610E",
">  c #93630E",
",  c #9C630C",
"<  c #98690F",
"1  c #8E6314",
"2  c #876518",
"3  c #926513",
"4  c #936A14",
"5  c #9C6B14",
"6  c #986B19",
"7  c #9C7113",
"8  c #987318",
"9  c #A4690E",
"0  c #AA6E0F",
"q  c #A2670D",
"w  c #AB6F10",
"e  c #A16E14",
"r  c #AE7313",
"t  c #A67718",
"y  c #B27513",
"u  c #B67914",
"i  c #BA7B15",
"p  c #B77C1A",
"a  c #9B7723",
"s  c #8D7028",
"d  c #A67A27",
"f  c #AA821B",
"g  c #B88719",
"h  c #BD911C",
"j  c #AC8726",
"k  c #B48824",
"l  c #BC9326",
"z  c #AA8834",
"x  c #BB9434",
"c  c #AF8F37",
"v  c #B5A138",
"b  c #C7861A",
"n  c #D18818",
"m  c #C9991C",
"M  c #D5931C",
"N  c #D4A01E",
"B  c #C69626",
"V  c #D49625",
"C  c #C69E34",
"Z  c #C68D24",
"A  c #E19B21",
"S  c #CCA628",
"D  c #DAAA25",
"F  c #D3AC2C",
"G  c #D6A929",
"H  c #D4B22C",
"J  c #DAB42C",
"K  c #DCBB2C",
"L  c #DAB827",
"P  c #CAA332",
"I  c #C5A23C",
"U  c #C9A839",
"Y  c #D2AB31",
"T  c #D3A83A",
"R  c #CEB338",
"E  c #D4B232",
"W  c #DCB533",
"Q  c #D6BB32",
"!  c #DCBC34",
"~  c #D3B43C",
"^  c #DCBC3B",
"/  c #D5BB3C",
"(  c #CEB32D",
")  c #E7A728",
"_  c #F2AB2A",
"`  c #E3B62B",
"'  c #E3BB2B",
"]  c #EABC2B",
"[  c #E9B528",
"{  c #E3BD34",
"}  c #E1BD3B",
"|  c #E9BC33",
" . c #F4B832",
".. c #EA9817",
"X. c #E4CA1E",
"o. c #DCC22E",
"O. c #DCC334",
"+. c #DDC33B",
"@. c #DCC83A",
"#. c #E5C32D",
"$. c #ECC42C",
"%. c #EDCB2E",
"&. c #E7CA2F",
"*. c #F2C42C",
"=. c #F3CB2E",
"-. c #FACD2F",
";. c #F9C72D",
":. c #FFD12F",
">. c #F3D02F",
",. c #E4C335",
"<. c #EBC434",
"1. c #E5CA35",
"2. c #ECCB34",
"3. c #E2C33B",
"4. c #EAC43A",
"5. c #E5CB3A",
"6. c #ECCC3B",
"7. c #F2C534",
"8. c #F2CC33",
"9. c #F9CE33",
"0. c #F2C53A",
"q. c #F3CC3A",
"w. c #FAC93A",
"e. c #ECD334",
"r. c #E5D13D",
"t. c #ECD43C",
"y. c #EEDB3C",
"u. c #E6D433",
"i. c #F4D333",
"p. c #FCD433",
"a. c #F4DA35",
"s. c #FDDB35",
"d. c #F3D33B",
"f. c #FAD53A",
"g. c #F3DC3B",
"h. c #FADC3A",
"j. c #ECD521",
"k. c #EEE13C",
"l. c #F5E33C",
"z. c #FBE43A",
"x. c #FDEB3D",
"c. c #FAE437",
"v. c #FEF13F",
"b. c #FEFD3D",
"n. c #FCF52F",
"m. c #BD9D48",
"M. c #B39C58",
"N. c #AC8F46",
"B. c #BDB249",
"V. c #BBA750",
"C. c #BCA363",
"Z. c #CAAB42",
"A. c #C3A446",
"S. c #CCB84B",
"D. c #D7BA46",
"F. c #CAAC56",
"G. c #CDB355",
"H. c #DDBC55",
"J. c #D4B857",
"K. c #E5BD4C",
"L. c #D8BB6A",
"P. c #D0B675",
"I. c #E6BF65",
"U. c #DBC344",
"Y. c #DDC849",
"T. c #DBC55A",
"R. c #D4C94C",
"E. c #E4C345",
"W. c #E3CB42",
"Q. c #EACC43",
"!. c #E4CC4A",
"~. c #ECCC4C",
"^. c #E8C645",
"/. c #F1CE4B",
"(. c #F1CB42",
"). c #EDD343",
"_. c #EEDC42",
"`. c #EDDB4B",
"'. c #EAD34C",
"]. c #F3D343",
"[. c #F3DC42",
"{. c #F9DB43",
"}. c #F3D54C",
"|. c #F3DB4B",
" X c #F9D749",
".X c #E8C956",
"XX c #F0CB57",
"oX c #ECD454",
"OX c #E8D958",
"+X c #F5D654",
"@X c #F3DA54",
"#X c #F5D65A",
"$X c #F5DD5B",
"%X c #F8D957",
"&X c #F4E343",
"*X c #FAE543",
"=X c #FBEC43",
"-X c #FAE34B",
";X c #F8EB49",
":X c #FEF343",
">X c #FDF44B",
",X c #FFFD4C",
"<X c #FCF945",
"1X c #ECE357",
"2X c #F5E25C",
"3X c #F8E755",
"4X c #FFFC5C",
"5X c #DBC863",
"6X c #DFD477",
"7X c #E4C56D",
"8X c #E4CB69",
"9X c #E8D965",
"0X c #F5D767",
"qX c #E9C979",
"wX c #E6D676",
"eX c #F7DB75",
"rX c #F1CB69",
"tX c #F7E666",
"yX c #FCF569",
"uX c #FAE478",
"iX c #FFFA79",
"pX c #EBE270",
"aX c #D2B881",
"sX c #DBCD8B",
"dX c #EACD88",
"fX c #EAD687",
"gX c #EDD295",
"hX c #E5CC98",
"jX c #EBE486",
"kX c #F2E985",
"lX c #FBE788",
"zX c #FDFB87",
"xX c #E9E29A",
"cX c #F9EA98",
"vX c #FEFB97",
"bX c #DBD2AF",
"nX c #E9D7A7",
"mX c #EADBB7",
"MX c #E2CDA0",
"NX c #FBEEA1",
"BX c #FCF2A5",
"VX c #F9F6A7",
"CX c #EBE3BA",
"ZX c #FDF8B9",
"AX c #EFE0A0",
"SX c #EDE6C8",
"DX c #F2ECCC",
"FX c #FCF8C6",
"GX c #F2ECD2",
"HX c #F9F4DC",
"JX c #FEFBDB",
"KX c #FAF5D3",
"LX c #FAF6E2",
"PX c #FDFBE4",
"IX c #FDFAE8",
"UX c None",
/* pixels */
"UXUXUXUXUXUXUXUXUXUXUXUXUXUXUXUXUXUXUXUXUXUXUXUXUXUXUXUXUXUXUXUXUXUXUXUXUXUXUXUXUXUXUXUXUXUXUXUXUXUXUXUXUXUXUXUXUXUXUXUXUXUXUXUX",
"UXUXUXUXUXUXUXUXUXUXUXUXUXUXUXUXUXUXUXUXUXUXUXUXUXUXUXUXUXUXUXUXUXUXUXUXUXUXUXUXUXUXUXUXUXUXUXUXUXUXUXUXUXUXUXUXUXUXUXUXUXUXUXUX",
"UXUXUXUXUXUXUXUXUXUXUXUXUXUXUXUXUXUXUXUXUXUXUXUXUXUXUXUXUXUXUXUXUXUXUXUXUXUXUXUXUXUXUXUXUXUXUXUXUXUXUXUXUXUXUXUXUXUXUXUXUXUXUXUX",
"UXUXUXUXUXUXUXUXUXUXUXUXUXUXUXUXUXUXUXUXUXUXUXUXUXUXUXUXUXUXUXUXUXUXUXUXUXUXUXUXUXUXUXUXUXUXUXUXUXUXUXUXUXUXUXUXUXUXUXUXUXUXUXUX",
"UXUXUXUXUXUXUXUXUXUXUXUXUXUXUXUXUXUXUXUXUXUXUXUXUXUXUXUXUXUXUXUXUXUXUXUXUXUXUXUXUXUXUXUXUXUXUXUXUXUXUXUXUXUXUXUXUXUXUXUXUXUXUXUX",
"UXUXUXUXUXUXUXUXUXUXUXUXUXUXUXUXUXUXUXUXUXUXUXUXUXUXHXLXIXIXIXIXIXPXIXIXLXHXUXUXUXUXUXUXUXUXUXUXUXUXUXUXUXUXUXUXUXUXUXUXUXUXUXUX",
"UXUXUXUXUXUXUXUXUXUXUXUXUXUXUXUXUXUXUXUXUXUXUXPXIXPXFXZXcXlXlXuXuXuXlXlXNXFXKXJXGXUXUXUXUXUXUXUXUXUXUXUXUXUXUXUXUXUXUXUXUXUXUXUX",
"UXUXUXUXUXUXUXUXUXUXUXUXUXUXUXUXUXUXUXUXHXIXPXZXlXeXeXdXgXnXnXnXnXnXnXgXqXrX#XeXNXZXSXUXUXUXUXUXUXUXUXUXUXUXUXUXUXUXUXUXUXUXUXUX",
"UXUXUXUXUXUXUXUXUXUXUXUXUXUXUXUXUXUXUXIXJXNXeXqXnXCXCXKXFXVXAXL.L.L.fXZXFXKXSXhXI.XXuXNXCXUXUXUXUXUXUXUXUXUXUXUXUXUXUXUXUXUXUXUX",
"UXUXUXUXUXUXUXUXUXUXUXUXUXUXUXUXUXLXPXNX0XfXCXCXFXkXJ.;X,X<X9XR g.g.x.<X,XyXkXnXCXbXL.K.tXlXsXUXUXUXUXUXUXUXUXUXUXUXUXUXUXUXUXUX",
"UXUXUXUXUXUXUXUXUXUXUXUXUXUXUXUXIXFXeXdXGXJXcXJ.;X;XJ.r.b.:X5XF.r.v.v.x.=X2XJ.R G.wXBXMXF.| 3XpXUXUXUXUXUXUXUXUXUXUXUXUXUXUXUXUX",
"UXUXUXUXUXUXUXUXUXUXUXUXUXUXHXPXcX0XmXHXVX4X=XS.T.5XF.~ x.;XT.R e.x.v.v.>X7X~ k.1.@.=XyXfXC.T {.1XS.UXUXUXUXUXUXUXUXUXUXUXUXUXUX",
"UXUXUXUXUXUXUXUXUXUXUXUXUXLXJXlXwXSXnX9X<Xv.v.R.V.@.5.I k.;XJ.U.;X&X=X:XtXF.U a.x.x.x.x.<XtXC.v 0.].Z.UXUXUXUXUXUXUXUXUXUXUXUXUX",
"UXUXUXUXUXUXUXUXUXUXUXUXHXJXeXgXGXsX^ g.:X:Xb._.U y.=X+.t.*X+.Z.D./ z.;XL.O.g.x.x.x.x.x.3X`.3XB.z  .0.C UXUXUXUXUXUXUXUXUXUXUXUX",
"UXUXUXUXUXUXUXUXUXUXUXHXJXeXgXHXsXA.T.OX1X-Xl.<X+.t.:Xl.v.v.x.k.l.l.x.[.R Z.W.z.x.x.x.z.!.F.+.=XB.d _  .x UXUXUXUXUXUXUXUXUXUXUX",
"UXUXUXUXUXUXUXUXUXUXKXJXlXdXDXzXy.@.+.U.D.G.D.v.l.x.v.v.z.l.l.x.=Xx.x.x.g.@.R e.x.x.c.=X9XF.A.5.=Xv d _ A UXUXUXUXUXUXUXUXUXUXUX",
"UXUXUXUXUXUXUXUXUXUXIXcX7XmXpXk._.k.:X=X1XJ.+.=Xx.x.x.x.k.u.&.a.g.c.z.z.z.z.c.x.z.x.-X8XD.1.R 1.z.l.z d _ Z UXUXUXUXUXUXUXUXUXUX",
"UXUXUXUXUXUXUXUXUXLXZXrXMXkX;Xk.&X_.:X`.H.+.l.x.x.x.k.k.u.o.^ t.a.a.a.a.g.c.z.z.x.-X.X^ a.x.e.d.a.d.,.s Z A d UXUXUXUXUXUXUXUXUX",
"UXUXUXUXUXUXUXUXKXJXeXMXxX;X:X&X&X=Xv.l.g.x.v.l.h.e.e.u.#.Q oX2X1.5._.O.&.h.c.z.x.d.2.z.z.s.6.t.5.g.e.C 2 A b UXUXUXUXUXUXUXUXUX",
"UXUXUXUXUXUXUXUXPXcXdXGX9Xu.l.=X&Xy.v.v.v.x.v._.r.Q Q @.@.1.`.3XoX@XtXoX&.a.c.c.z.x.z.c.z.z.d.d.h.c.d.&.a d A t UXUXUXUXUXUXUXUX",
"UXUXUXUXUXUXUXKXFX0XSXjXr.r.t.t.y.l.x.v.x.v.x.[.!.U.#.5.'.g.&X=X-X3X'.^ &.a.c.x.z.z.c.c.z.s.d.[.h.i.1.6.' $ Z i UXUXUXUXUXUXUXUX",
"UXUXUXUXUXUXUXLXcXdXDX1Xy._.&X*X=Xv.v.x.x.x.x.-X2XoXe.r.wX@Xc.z.z.&X1.Q u.a.c.s.z.s.c.s.a.a.e.6.2.2.+.4.f.f a n e UXUXUXUXUXUXUX",
"UXUXUXUXUXUXUXKX0XmXjX&X_._.l.:Xx.x.x.x.x.x.x.*X3X2X_.Y.5Xr.a.z.l.g.O.Q >.a.s.h.h.a.i.i.>.>.f.q.).t.6.5.6.J $ M r UXUXUXUXUXUXUX",
"UXUXUXUXUXUXSXBX8XnX3X&Xk.r.l.x.l.c.z.z.z.z.x.l.-X2X2XS.6X{ >.>.z.y.Q K %.a.a.a.>.&.2.6.Q #.i.a.s.f.6.d.d.<.2 t i 8 UXUXUXUXUXUX",
"UXUXUXUXUXUXGXuXhXxX_.=X*Xt.t.g.g.a.a.a.h.h.c.h.a.).oXT._.K ) D f.t.Q K %.>.%.#.K Q !.2XoX$.>.a.a.d.d.8.).8.j 2 b 5 UXUXUXUXUXUX",
"UXUXUXUXUXUXFXXXmXpXu.y.*Xg.r.y.Q.Q o.t.[.d.e.a.a.e.@.5XF M D M Q.`.! H o.o.Q Q +.Q.+X@X} #.>.i.p.<.1.f.f.2.Y + b 5 UXUXUXUXUXUX",
"UXUXUXUXUXbXBXI.DX1X@.6._.1.g._.Y.+.Q !.2X2X2X%X|.).@.pX8X8XlXAXNXkX!.+.+.+.5.d.f.h.{.-X~.~.2.=.=.4.f.a.i.2.,.# p 0 UXUXUXUXUXUX",
"UXUXUXUXUXbXlXL.ZX`.5.t.t.c.k.6.o.( &.t.|.-X3X2X2X$XOXOXiXvXzXyX$XoXoX!.}.g.f.f.z.s.f.[.+XoXE.J =.&.<.q.{ ,.6.4 8 y 4 UXUXUXUXUX",
"UXUXUXUXUXmXeXP.VXy.t.r.g.z.g.&.Q o.e.a.l.z.z.*X-X-XT.Y.:X,X,X,X>X-X).E.+.h.s.s.s.s.s.f.6.! H #.8.d.&.<.4.! 9.t 1 i 3 UXUXUXUXUX",
"UXUXUXUXUXxXoXaXkXu.6.g._._.t.O.L &.a.c.z.z.c.c.z.h.S.R O.u.k.l.>X,X>X-XW.5.s.c.s.s.s.f.&.` L %.8.p.p.<.<.,.q.h # i : UXUXUXUXUX",
"UXUXUXUXUXjX~.P.pXk.l.[.[.5.oX$X).>.a.c.z.z.s.c.z.z.$X.XuXjX6X5X/ y.,X,X;XO.a.s.f.a.p.2.4.} ' =.8.p.p.6.8.<.8.h @ i : UXUXUXUXUX",
"UXUXUXUXUXpX(.C.OXl.c.c.d.t.|.2XOX&.a.a.s.c.z.h.s.h.1XyXyXuXuXyX1XR k.,X,Xt.O.p.>.>.>.%.,.W J $.i.8.2.q.d.<.0.l + i : UXUXUXUXUX",
"UXUXUXUXUX9X0.M.OXd.@.d.).[.[.Q.+.#.>.a.a.a.a.i.i.i.5.).t.1.2. X>XE.Q <X,X;X( u.<.<.' L ` H E { $.6.$.f.p.s.p.k + i & UXUXUXUXUX",
"UXUXUXUXUX9X0.M.1Xt.O.t.{.z.g.6.H K &.%.>.2.#.' L >.~.D.E.8XH.G &X[.( >X,X<XK /./.^.D.F S J ! 4.=.8.4.$.%.2.q.f @ u : UXUXUXUXUX",
"UXUXUXUXUX!.w.N.1Xy.5.h.h.c.g.6.O.! 3.Q.+X$XU.S $.>.`.cXBXlXK.W tXl.( yX,X<Xo.d. X@X#X#XJ ' $.=.i.p.f.(.,.W <.t # y & UXUXUXUXUX",
"UXUXUXUXUXR.(.c OXl.g.6.t.a.&X{.|.@X+X@XoXE.( ' 2.i.f.) ) ..n 7XvXL D.cXb.b.L d.f. X~.{ ( ' %.p.p.s.s.f.8.,.8.7 ; w 1 UXUXUXUXUX",
"UXUXUXUXUXZ.w.z S.y.t.y.e.u.f.h.h.{.{.[.3.L L &.>.p.f.$.N T 7XfXE.~ AXiXb.c.L i.p.q.3.! L *.>.p.s.p.p.<.q.0.*.* 5 q 4 UXUXUXUXUX",
"UXUXUXUXUXUX .B v r.h.g.d.d.t.s.h.h.h.].2.E.4.$.i.a.a.i.&.J ~ .XgXVXzXb.n.X.X.p.p.=.{ E $.%.i.p.s.:.<.8.6.8.D   r > UXUXUXUXUXUX",
"UXUXUXUXUXUX_ T s W.e.s.h.f.6.s.s.z.h.h.}.$XoX$.>.p.p.$.K F } 0XU.#.j.j.' { %.=.=.%.] S ] >.i.p.:.2.| 8.q.q.l   y & UXUXUXUXUXUX",
"UXUXUXUXUXUXV _ a R d.,.2.t.2.s.z.s.s.f. X%X^.J $.$.%.#.J K ^.~.( S D L 5.%X/.$.#.L H W <.=.p.:.=.7.i.:.p.*.a - w 1 UXUXUXUXUXUX",
"UXUXUXUXUXUXk ) p z ).,.6.2.2.d.s.s.s.s.f. X<.W XX~.' D ' &.Q.^.E Y K #.4.+X#XE.J J ! <.q.9.p.p.-.,.w.*.<.W $ e , 6 UXUXUXUXUXUX",
"UXUXUXUXUXUXUXV V s ,.3.i.d.6.e.f.a.s.s.f.h.]. X%X#X^ K <.2.6.E.F F { *.=.d.+X/.<.<.8.i.:.p.:.p.=.<.<.W ` k O y & UXUXUXUXUXUXUX",
"UXUXUXUXUXUXUXk A a j q.8.&.2.f.d.4.a.s.s.p.f.h. X X2.8.8.f.q.E.E Y 4.$.=.9.f.].f.9.p.p.p.:.:.8.<.<.7.<.G # 3 9 > UXUXUXUXUXUXUX",
"UXUXUXUXUXUXUXUXb Z 2 ` q.d.f.f.f.8.f.s.s.s.s.p.s.f.f.p.p.p.d.} F H ~.2.%.p.:.p.:.p.p.:.p.8.<.0.;.<.;.*.j   y = UXUXUXUXUXUXUXUX",
"UXUXUXUXUXUXUXUXt M t a <.6.p.9.=.6.p.a.s.s.p.s.p.p.s.p.s.p.f.} F J oX(.*.-.:.:.p.p.p.p.:.7.;.q.8.*.0.D X 5 q > UXUXUXUXUXUXUXUX",
"UXUXUXUXUXUXUXUXUXp V $ h 2.4.Q { ^.d.f.p.s.p.s.s.p.p.s.s.p.8.W H K ^./.*.=.p.:.p.p.:.:.:.q.<.;.-.9.| 3 + y & UXUXUXUXUXUXUXUXUX",
"UXUXUXUXUXUXUXUXUX8 b g + S q.{ } 8.2.0.6.f.8.s.s.s.s.p.p.p.q.W H ' { W #.=.:.:.:.:.9.9.9.q.<.| ' ;.j   r > 7 UXUXUXUXUXUXUXUXUX",
"UXUXUXUXUXUXUXUXUXUX5 b t $ ` <.4.].p.=.! W <.p. X].p.s.s.p.q.} D ] L G D =.8.<.{ 7.<.4.0.<.4.| W B   5 q > UXUXUXUXUXUXUXUXUXUX",
"UXUXUXUXUXUXUXUXUXUXUXe n 6 * J 6.q.p.p.<.4.].XXH.U P 7.f.f.]./.K.} W T ` } ~ *.<.W ] =.8.7.*.] B % 3 w = UXUXUXUXUXUXUXUXUXUXUX",
"UXUXUXUXUXUXUXUXUXUXUXUX9 b 1 # F q.1.p.f.3.H.T ' *.' (.T.T 0.XX7XL.J.m.I | I Y <.7.;.:.0.0.;.B   1 r = UXUXUXUXUXUXUXUXUXUXUXUX",
"UXUXUXUXUXUXUXUXUXUXUXUX6 5 b 6 + m 7.q.<.4.S.` p.:.{.H.P C J | Z.I W I m.I J.C W 7.-.| ;.` f   3 w = UXUXUXUXUXUXUXUXUXUXUXUXUX",
"UXUXUXUXUXUXUXUXUXUXUXUXUX4 , b e % f ] p.q.Z.` p.p.~.T *.D.Y :.} P =.W x C F.m.D | 0.] G 6   e w = UXUXUXUXUXUXUXUXUXUXUXUXUXUX",
"UXUXUXUXUXUXUXUXUXUXUXUXUXUXUX> u p @ * m =.Y C <.p.^ C w.H.F :.} C ;.w.C S G x G ;.[ g X @ r q = UXUXUXUXUXUXUXUXUXUXUXUXUXUXUX",
"UXUXUXUXUXUXUXUXUXUXUXUXUXUXUXUX> 9 i 5 . * h N ] :.<.I H.T *.:./.Z.| 9.J N ;.` N g o   5 w , > UXUXUXUXUXUXUXUXUXUXUXUXUXUXUXUX",
"UXUXUXUXUXUXUXUXUXUXUXUXUXUXUXUXUX1 = y p 5 + o t m [ G S *.:.q.H.I P [ ] N m 7 X . 5 y q = 7 UXUXUXUXUXUXUXUXUXUXUXUXUXUXUXUXUX",
"UXUXUXUXUXUXUXUXUXUXUXUXUXUXUXUXUXUXUX1 = 0 i e * . X * 6 f g g t t 7 4 *     ; e y q = 5 UXUXUXUXUXUXUXUXUXUXUXUXUXUXUXUXUXUXUX",
"UXUXUXUXUXUXUXUXUXUXUXUXUXUXUXUXUXUXUXUXUX: = , w p y 5 1 - @ @ o o - 1 5 r y 0 , = < UXUXUXUXUXUXUXUXUXUXUXUXUXUXUXUXUXUXUXUXUX",
"UXUXUXUXUXUXUXUXUXUXUXUXUXUXUXUXUXUXUXUXUXUXUX6 : = = q 9 0 y w r w 0 q , = = > UXUXUXUXUXUXUXUXUXUXUXUXUXUXUXUXUXUXUXUXUXUXUXUX",
"UXUXUXUXUXUXUXUXUXUXUXUXUXUXUXUXUXUXUXUXUXUXUXUXUXUXUXUX< : > > > > > 7 UXUXUXUXUXUXUXUXUXUXUXUXUXUXUXUXUXUXUXUXUXUXUXUXUXUXUXUX",
"UXUXUXUXUXUXUXUXUXUXUXUXUXUXUXUXUXUXUXUXUXUXUXUXUXUXUXUXUXUXUXUXUXUXUXUXUXUXUXUXUXUXUXUXUXUXUXUXUXUXUXUXUXUXUXUXUXUXUXUXUXUXUXUX",
"UXUXUXUXUXUXUXUXUXUXUXUXUXUXUXUXUXUXUXUXUXUXUXUXUXUXUXUXUXUXUXUXUXUXUXUXUXUXUXUXUXUXUXUXUXUXUXUXUXUXUXUXUXUXUXUXUXUXUXUXUXUXUXUX",
"UXUXUXUXUXUXUXUXUXUXUXUXUXUXUXUXUXUXUXUXUXUXUXUXUXUXUXUXUXUXUXUXUXUXUXUXUXUXUXUXUXUXUXUXUXUXUXUXUXUXUXUXUXUXUXUXUXUXUXUXUXUXUXUX",
"UXUXUXUXUXUXUXUXUXUXUXUXUXUXUXUXUXUXUXUXUXUXUXUXUXUXUXUXUXUXUXUXUXUXUXUXUXUXUXUXUXUXUXUXUXUXUXUXUXUXUXUXUXUXUXUXUXUXUXUXUXUXUXUX",
"UXUXUXUXUXUXUXUXUXUXUXUXUXUXUXUXUXUXUXUXUXUXUXUXUXUXUXUXUXUXUXUXUXUXUXUXUXUXUXUXUXUXUXUXUXUXUXUXUXUXUXUXUXUXUXUXUXUXUXUXUXUXUXUX"
};
