/* XPM */
static char *b815afb74537420c8d7068a1162b32a9[] = {
/* columns rows colors chars-per-pixel */
"32 32 193 2 ",
"   c #9B660F",
".  c #9E690F",
"X  c #956511",
"o  c #9A6610",
"O  c #966B14",
"+  c #9D6A12",
"@  c #976E18",
"#  c #9F7314",
"$  c #9E761B",
"%  c #A46E14",
"&  c #A27014",
"*  c #AB7416",
"=  c #A47917",
"-  c #AF7917",
";  c #A17719",
":  c #A67C1D",
">  c #AB7E1A",
",  c #B37C1A",
"<  c #AE851E",
"1  c #B1851A",
"2  c #BA821C",
"3  c #B38A1D",
"4  c #A98222",
"5  c #B28322",
"6  c #BD8520",
"7  c #B78D20",
"8  c #B98C28",
"9  c #BD9324",
"0  c #BA942D",
"q  c #C1871E",
"w  c #CE9325",
"e  c #C39B25",
"r  c #CA9E25",
"t  c #C29E2A",
"y  c #D69D2C",
"u  c #C29F3B",
"i  c #CDA427",
"p  c #CBA52A",
"a  c #CFA829",
"s  c #D0A72A",
"d  c #D5AB2C",
"f  c #DBAE2B",
"g  c #D7B32E",
"h  c #DCB62D",
"j  c #DDB82D",
"k  c #C1A135",
"l  c #D5A534",
"z  c #D3AF30",
"x  c #D1AD3F",
"c  c #CCB239",
"v  c #D6B232",
"b  c #DCB434",
"n  c #DCBC32",
"m  c #D7B13C",
"M  c #DCB539",
"N  c #D4BE3E",
"B  c #DCBF3F",
"V  c #E2B02D",
"C  c #E3BD2E",
"Z  c #E2BC33",
"A  c #E9BE32",
"S  c #E1B43A",
"D  c #E1BB3D",
"F  c #DFC32F",
"G  c #DDC134",
"H  c #DFC53E",
"J  c #E5C42C",
"K  c #EBC32D",
"L  c #EECB2C",
"P  c #F4CA2E",
"I  c #E4C334",
"U  c #EBC434",
"Y  c #E2C936",
"T  c #EDCB33",
"R  c #E5C33A",
"E  c #EAC63C",
"W  c #E4CA3B",
"Q  c #EBCA3C",
"!  c #F2C632",
"~  c #F3CC34",
"^  c #F8CE33",
"/  c #F3CF38",
"(  c #EDD334",
")  c #E7D03A",
"_  c #ECD23A",
"`  c #EFD83D",
"'  c #F4D235",
"]  c #FBD433",
"[  c #F5DB36",
"{  c #FEDA35",
"}  c #F1D33A",
"|  c #F9D339",
" . c #F4DB3C",
".. c #FBDB3B",
"X. c #F2E531",
"o. c #FCE037",
"O. c #F5E33C",
"+. c #FBE43B",
"@. c #FDEB3D",
"#. c #FFF13C",
"$. c #C9A642",
"%. c #D4B240",
"&. c #D3BB4D",
"*. c #DFBD50",
"=. c #E0BA42",
"-. c #E3B84E",
";. c #EEBF55",
":. c #DAC345",
">. c #DDC842",
",. c #DAC34C",
"<. c #DCC84B",
"1. c #DDC351",
"2. c #DCC15F",
"3. c #E4C145",
"4. c #E9C543",
"5. c #E0CA46",
"6. c #EACB45",
"7. c #E6C648",
"8. c #E2CA4C",
"9. c #ECCC4A",
"0. c #F2CF40",
"q. c #F0CF4C",
"w. c #E5D446",
"e. c #EBD442",
"r. c #EDDD41",
"t. c #E3D24A",
"y. c #ECD34B",
"u. c #EFD84F",
"i. c #FAD641",
"p. c #F6D943",
"a. c #F9DA43",
"s. c #F6D74D",
"d. c #F8D548",
"f. c #F3DC4C",
"g. c #E3CC53",
"h. c #E1C15B",
"j. c #E2CE5A",
"k. c #E6D253",
"l. c #EAD352",
"z. c #ECDA53",
"x. c #E2D15A",
"c. c #E9D758",
"v. c #F6DF52",
"b. c #EEE34B",
"n. c #F3E143",
"m. c #FAE543",
"M. c #F7E943",
"N. c #F6EE4C",
"B. c #F9EB49",
"V. c #FAF446",
"C. c #EEE155",
"Z. c #F2E051",
"A. c #F8E252",
"S. c #F1E558",
"D. c #DEC561",
"F. c #E1CE6E",
"G. c #ECDD66",
"H. c #E5D66B",
"J. c #E9D16E",
"K. c #E7D079",
"L. c #EFE16C",
"P. c #F2E460",
"I. c #F3E16A",
"U. c #F6EA6F",
"Y. c #F8F16A",
"T. c #EEE172",
"R. c #EDE07D",
"E. c #F7E87A",
"W. c #FBF47F",
"Q. c #ECD380",
"!. c #ECDC82",
"~. c #E8D189",
"^. c #ECD98C",
"/. c #EAD894",
"(. c #E9D59A",
"). c #EFDC9A",
"_. c #F0DA96",
"`. c #F2DF9D",
"'. c #EEE18F",
"]. c #FBF189",
"[. c #F2E29B",
"{. c #FAF299",
"}. c #F6E4A3",
"|. c #F5E6A8",
" X c #F8E7AA",
".X c #F9EAAF",
"XX c #F5EAB3",
"oX c #F9EBB2",
"OX c #FBF0BD",
"+X c #FCF2C4",
"@X c #FCF5CE",
"#X c #FCF6D2",
"$X c None",
/* pixels */
"$X$X$X$X$X$X$X$X$X$X$X$X$X$X$X$X$X$X$X$X$X$X$X$X$X$X$X$X$X$X$X$X",
"$X$X$X$X$X$X$X$X$X$X$X$X$X$X$X$X$X$X$X$X$X$X$X$X$X$X$X$X$X$X$X$X",
"$X$X$X$X$X$X$X$X$X$X$X$X$X$X$X@X@X$X$X$X$X$X$X$X$X$X$X$X$X$X$X$X",
"$X$X$X$X$X$X$X$X$X$X$X+XoX X|.`._.[.}.}.|.$X$X$X$X$X$X$X$X$X$X$X",
"$X$X$X$X$X$X$X$X$X+X|.[.[.!.].F.g.U.]./.~.Q.!.$X$X$X$X$X$X$X$X$X",
"$X$X$X$X$X$X$X#X.X|.{.H.x.:.O.,.O.#.Z.,.x.T.D.1.$X$X$X$X$X$X$X$X",
"$X$X$X$X$X$X#X|.(.H.V.r.>.W  .:.w.m.1._ @.#.C.&.M S $X$X$X$X$X$X",
"$X$X$X$X$X#X}.[.x.5.k.r.O.O.O.O.O.O.4._ @.+.1.>.c y $X$X$X$X$X$X",
"$X$X$X$X$X|.^.S.n.M.<. .#.O.( ) [ X.o.o.m.y.) T } 0 w $X$X$X$X$X",
"$X$X$X$XOX).G.O.n.@.O.M.) Y Y u.y.y.( o.+...+.` [ n 5 q $X$X$X$X",
"$X$X$X$X}.'.w.O.M.#.#.M.y.W u.m.m.5.( o.+.{ [ } } Q t , $X$X$X$X",
"$X$X$XXX^.P. .O.+.+.@.O.A.g.8.[ ` F ( [ ' _ T / } _ n : - $X$X$X",
"$X$X$X[.^.r. .` _ _ p.[  .g.M V 0.F J I Y u.E ' / / / 4 * $X$X$X",
"$X$X$X^.R.) ` ` G Y v.A.u.k.L.E.L.8.W } [ a.9.U T / T 9 % $X$X$X",
"$X$X$XK.G.`  .) F } +.+.m.<.b.N.B.f._ ..{ ] R C ~ T U p & $X$X$X",
"$X$XH.D.z.[ e.u.) [ o.o...z.I.G.w.V.r./ ' ~ I J P / ~ s O $X$X$X",
"$X$Xx.&.t.)  ._ F T / T P q.l.6.e.` V.Y Q Z z C T T / p O $X$X$X",
"$X$X$X%.w.`  ...6.w.9.n L q.h.-.u.c.V.T d.6.Z ! ] / U e o $X$X$X",
"$X$X$Xl N  ._ | ..a.R I ' ' f h.J.Y.X.L ^ n A ] ] ~ ~ 3 o $X$X$X",
"$X$X$Xy k / } [ o...s.E L L j 8.H J W / K j K ] ~ ^ U ; o $X$X$X",
"$X$X$Xw 8 D T / { {  .0.q.Z U 4.z C } q.A U ^ ] ! U p O + $X$X$X",
"$X$X$X$X6 t } / / ] { | i./ / U v R P ] ^ ] ^ ^ ! K : X $X$X$X$X",
"$X$X$X$X2 > g T Q | ] { ] { ] U g 4.P ] ] ] ^ ! ^ r X   $X$X$X$X",
"$X$X$X$X$X, : C Q ~ U / i.] { U j Z A P ~ ^ ! U d @   $X$X$X$X$X",
"$X$X$X$X$X$X* : C ~ Q 3.D R E 4.*.x v b A ! ~ f @ o $X$X$X$X$X$X",
"$X$X$X$X$X$X& * ; d ! M ^ 4.m Z m m u $.A ! r O o $X$X$X$X$X$X$X",
"$X$X$X$X$X$X$X$X% O 3 e K M =.! =.K d d r - X   $X$X$X$X$X$X$X$X",
"$X$X$X$X$X$X$X$X$X%   O - < 9 i 0 7 1 # X X . $X$X$X$X$X$X$X$X$X",
"$X$X$X$X$X$X$X$X$X$X$X+   o o X X X o   % $X$X$X$X$X$X$X$X$X$X$X",
"$X$X$X$X$X$X$X$X$X$X$X$X$X$X$X$X$X$X$X$X$X$X$X$X$X$X$X$X$X$X$X$X",
"$X$X$X$X$X$X$X$X$X$X$X$X$X$X$X$X$X$X$X$X$X$X$X$X$X$X$X$X$X$X$X$X",
"$X$X$X$X$X$X$X$X$X$X$X$X$X$X$X$X$X$X$X$X$X$X$X$X$X$X$X$X$X$X$X$X"
};
